<mxfile host="app.diagrams.net" modified="2022-04-27T04:51:13.438Z" agent="5.0 (Windows NT 10.0; Win64; x64) AppleWebKit/537.36 (KHTML, like Gecko) Chrome/100.0.4896.75 Safari/537.36 Edg/100.0.1185.39" etag="Acx3ixR2pP60pYLfoSC5" version="17.4.6" type="github" pages="2">
  <diagram id="prtHgNgQTEPvFCAcTncT" name="Page-1">
    <mxGraphModel dx="1640" dy="435" grid="1" gridSize="10" guides="1" tooltips="1" connect="1" arrows="1" fold="1" page="1" pageScale="1" pageWidth="827" pageHeight="1169" math="0" shadow="0">
      <root>
        <mxCell id="0" />
        <mxCell id="1" parent="0" />
        <mxCell id="RUR8l_DnzO4BCU6AQAGY-20" value="Mirage" style="shape=table;childLayout=tableLayout;startSize=40;collapsible=0;recursiveResize=0;expand=0;fontStyle=1;" vertex="1" parent="1">
          <mxGeometry x="-30" y="50" width="637" height="570" as="geometry" />
        </mxCell>
        <mxCell id="RUR8l_DnzO4BCU6AQAGY-75" style="shape=tableRow;horizontal=0;startSize=40;swimlaneHead=0;swimlaneBody=0;top=0;left=0;bottom=0;right=0;dropTarget=0;fillColor=none;collapsible=0;recursiveResize=0;expand=0;fontStyle=1;" vertex="1" parent="RUR8l_DnzO4BCU6AQAGY-20">
          <mxGeometry y="40" width="637" height="50" as="geometry" />
        </mxCell>
        <mxCell id="RUR8l_DnzO4BCU6AQAGY-76" value="PI M" style="swimlane;swimlaneHead=0;swimlaneBody=0;fontStyle=0;connectable=0;fillColor=none;startSize=0;collapsible=0;recursiveResize=0;expand=0;fontStyle=1;verticalAlign=bottom;horizontal=1;labelPosition=center;verticalLabelPosition=top;align=center;spacing=0;spacingBottom=-32;" vertex="1" parent="RUR8l_DnzO4BCU6AQAGY-75">
          <mxGeometry x="40" width="119" height="50" as="geometry">
            <mxRectangle width="119" height="50" as="alternateBounds" />
          </mxGeometry>
        </mxCell>
        <mxCell id="RUR8l_DnzO4BCU6AQAGY-77" style="swimlane;swimlaneHead=0;swimlaneBody=0;fontStyle=0;connectable=0;fillColor=none;startSize=0;collapsible=0;recursiveResize=0;expand=0;fontStyle=1;" vertex="1" parent="RUR8l_DnzO4BCU6AQAGY-75">
          <mxGeometry x="159" width="120" height="50" as="geometry">
            <mxRectangle width="120" height="50" as="alternateBounds" />
          </mxGeometry>
        </mxCell>
        <mxCell id="RUR8l_DnzO4BCU6AQAGY-80" value="PI N" style="swimlane;swimlaneHead=0;swimlaneBody=0;fontStyle=0;connectable=0;fillColor=none;startSize=0;collapsible=0;recursiveResize=0;expand=0;fontStyle=1;verticalAlign=bottom;horizontal=1;labelPosition=center;verticalLabelPosition=top;align=center;spacing=0;spacingBottom=-32;" vertex="1" parent="RUR8l_DnzO4BCU6AQAGY-77">
          <mxGeometry width="120" height="50" as="geometry">
            <mxRectangle width="120" height="50" as="alternateBounds" />
          </mxGeometry>
        </mxCell>
        <mxCell id="RUR8l_DnzO4BCU6AQAGY-78" style="swimlane;swimlaneHead=0;swimlaneBody=0;fontStyle=0;connectable=0;fillColor=none;startSize=0;collapsible=0;recursiveResize=0;expand=0;fontStyle=1;" vertex="1" parent="RUR8l_DnzO4BCU6AQAGY-75">
          <mxGeometry x="279" width="118" height="50" as="geometry">
            <mxRectangle width="118" height="50" as="alternateBounds" />
          </mxGeometry>
        </mxCell>
        <mxCell id="RUR8l_DnzO4BCU6AQAGY-81" value="PI P" style="swimlane;swimlaneHead=0;swimlaneBody=0;fontStyle=0;connectable=0;fillColor=none;startSize=0;collapsible=0;recursiveResize=0;expand=0;fontStyle=1;verticalAlign=bottom;horizontal=1;labelPosition=center;verticalLabelPosition=top;align=center;spacing=0;spacingBottom=-32;" vertex="1" parent="RUR8l_DnzO4BCU6AQAGY-78">
          <mxGeometry width="120" height="50" as="geometry">
            <mxRectangle width="120" height="50" as="alternateBounds" />
          </mxGeometry>
        </mxCell>
        <mxCell id="RUR8l_DnzO4BCU6AQAGY-79" style="swimlane;swimlaneHead=0;swimlaneBody=0;fontStyle=0;connectable=0;fillColor=none;startSize=0;collapsible=0;recursiveResize=0;expand=0;fontStyle=1;" vertex="1" parent="RUR8l_DnzO4BCU6AQAGY-75">
          <mxGeometry x="397" width="120" height="50" as="geometry">
            <mxRectangle width="120" height="50" as="alternateBounds" />
          </mxGeometry>
        </mxCell>
        <mxCell id="RUR8l_DnzO4BCU6AQAGY-82" value="PI O" style="swimlane;swimlaneHead=0;swimlaneBody=0;fontStyle=0;connectable=0;fillColor=none;startSize=0;collapsible=0;recursiveResize=0;expand=0;fontStyle=1;verticalAlign=bottom;horizontal=1;labelPosition=center;verticalLabelPosition=top;align=center;spacing=0;spacingBottom=-32;" vertex="1" parent="RUR8l_DnzO4BCU6AQAGY-79">
          <mxGeometry width="120" height="50" as="geometry">
            <mxRectangle width="120" height="50" as="alternateBounds" />
          </mxGeometry>
        </mxCell>
        <mxCell id="RUR8l_DnzO4BCU6AQAGY-83" value="" style="swimlane;swimlaneHead=0;swimlaneBody=0;fontStyle=0;connectable=0;fillColor=none;startSize=0;collapsible=0;recursiveResize=0;expand=0;fontStyle=1;" vertex="1" parent="RUR8l_DnzO4BCU6AQAGY-75">
          <mxGeometry x="517" width="120" height="50" as="geometry">
            <mxRectangle width="120" height="50" as="alternateBounds" />
          </mxGeometry>
        </mxCell>
        <mxCell id="RUR8l_DnzO4BCU6AQAGY-89" value="PI Q" style="swimlane;swimlaneHead=0;swimlaneBody=0;fontStyle=0;connectable=0;fillColor=none;startSize=0;collapsible=0;recursiveResize=0;expand=0;fontStyle=1;verticalAlign=bottom;horizontal=1;labelPosition=center;verticalLabelPosition=top;align=center;spacing=0;spacingBottom=-32;" vertex="1" parent="RUR8l_DnzO4BCU6AQAGY-83">
          <mxGeometry width="120" height="50" as="geometry">
            <mxRectangle width="120" height="50" as="alternateBounds" />
          </mxGeometry>
        </mxCell>
        <mxCell id="RUR8l_DnzO4BCU6AQAGY-25" value="VM Encryption" style="shape=tableRow;horizontal=0;startSize=40;swimlaneHead=0;swimlaneBody=0;top=0;left=0;bottom=0;right=0;dropTarget=0;fillColor=none;collapsible=0;recursiveResize=0;expand=0;fontStyle=1;" vertex="1" parent="RUR8l_DnzO4BCU6AQAGY-20">
          <mxGeometry y="90" width="637" height="120" as="geometry" />
        </mxCell>
        <mxCell id="RUR8l_DnzO4BCU6AQAGY-26" value="" style="swimlane;swimlaneHead=0;swimlaneBody=0;fontStyle=0;connectable=0;fillColor=none;startSize=0;collapsible=0;recursiveResize=0;expand=0;fontStyle=1;" vertex="1" parent="RUR8l_DnzO4BCU6AQAGY-25">
          <mxGeometry x="40" width="119" height="120" as="geometry">
            <mxRectangle width="119" height="120" as="alternateBounds" />
          </mxGeometry>
        </mxCell>
        <mxCell id="RUR8l_DnzO4BCU6AQAGY-27" value="" style="swimlane;swimlaneHead=0;swimlaneBody=0;fontStyle=0;connectable=0;fillColor=none;startSize=0;collapsible=0;recursiveResize=0;expand=0;fontStyle=1;" vertex="1" parent="RUR8l_DnzO4BCU6AQAGY-25">
          <mxGeometry x="159" width="120" height="120" as="geometry">
            <mxRectangle width="120" height="120" as="alternateBounds" />
          </mxGeometry>
        </mxCell>
        <mxCell id="RUR8l_DnzO4BCU6AQAGY-28" value="" style="swimlane;swimlaneHead=0;swimlaneBody=0;fontStyle=0;connectable=0;fillColor=none;startSize=0;collapsible=0;recursiveResize=0;expand=0;fontStyle=1;" vertex="1" parent="RUR8l_DnzO4BCU6AQAGY-25">
          <mxGeometry x="279" width="118" height="120" as="geometry">
            <mxRectangle width="118" height="120" as="alternateBounds" />
          </mxGeometry>
        </mxCell>
        <mxCell id="RUR8l_DnzO4BCU6AQAGY-48" style="swimlane;swimlaneHead=0;swimlaneBody=0;fontStyle=0;connectable=0;fillColor=none;startSize=0;collapsible=0;recursiveResize=0;expand=0;fontStyle=1;" vertex="1" parent="RUR8l_DnzO4BCU6AQAGY-25">
          <mxGeometry x="397" width="120" height="120" as="geometry">
            <mxRectangle width="120" height="120" as="alternateBounds" />
          </mxGeometry>
        </mxCell>
        <mxCell id="RUR8l_DnzO4BCU6AQAGY-84" style="swimlane;swimlaneHead=0;swimlaneBody=0;fontStyle=0;connectable=0;fillColor=none;startSize=0;collapsible=0;recursiveResize=0;expand=0;fontStyle=1;" vertex="1" parent="RUR8l_DnzO4BCU6AQAGY-25">
          <mxGeometry x="517" width="120" height="120" as="geometry">
            <mxRectangle width="120" height="120" as="alternateBounds" />
          </mxGeometry>
        </mxCell>
        <mxCell id="RUR8l_DnzO4BCU6AQAGY-29" value="Security &amp; &#xa;Configuration&#xa;Hardening" style="shape=tableRow;horizontal=0;startSize=40;swimlaneHead=0;swimlaneBody=0;top=0;left=0;bottom=0;right=0;dropTarget=0;fillColor=none;collapsible=0;recursiveResize=0;expand=0;fontStyle=1;" vertex="1" parent="RUR8l_DnzO4BCU6AQAGY-20">
          <mxGeometry y="210" width="637" height="120" as="geometry" />
        </mxCell>
        <mxCell id="RUR8l_DnzO4BCU6AQAGY-30" value="" style="swimlane;swimlaneHead=0;swimlaneBody=0;fontStyle=0;connectable=0;fillColor=none;startSize=0;collapsible=0;recursiveResize=0;expand=0;fontStyle=1;" vertex="1" parent="RUR8l_DnzO4BCU6AQAGY-29">
          <mxGeometry x="40" width="119" height="120" as="geometry">
            <mxRectangle width="119" height="120" as="alternateBounds" />
          </mxGeometry>
        </mxCell>
        <mxCell id="RUR8l_DnzO4BCU6AQAGY-31" value="" style="swimlane;swimlaneHead=0;swimlaneBody=0;fontStyle=0;connectable=0;fillColor=none;startSize=0;collapsible=0;recursiveResize=0;expand=0;fontStyle=1;" vertex="1" parent="RUR8l_DnzO4BCU6AQAGY-29">
          <mxGeometry x="159" width="120" height="120" as="geometry">
            <mxRectangle width="120" height="120" as="alternateBounds" />
          </mxGeometry>
        </mxCell>
        <mxCell id="RUR8l_DnzO4BCU6AQAGY-32" value="" style="swimlane;swimlaneHead=0;swimlaneBody=0;fontStyle=0;connectable=0;fillColor=none;startSize=0;collapsible=0;recursiveResize=0;expand=0;fontStyle=1;" vertex="1" parent="RUR8l_DnzO4BCU6AQAGY-29">
          <mxGeometry x="279" width="118" height="120" as="geometry">
            <mxRectangle width="118" height="120" as="alternateBounds" />
          </mxGeometry>
        </mxCell>
        <mxCell id="RUR8l_DnzO4BCU6AQAGY-49" style="swimlane;swimlaneHead=0;swimlaneBody=0;fontStyle=0;connectable=0;fillColor=none;startSize=0;collapsible=0;recursiveResize=0;expand=0;fontStyle=1;" vertex="1" parent="RUR8l_DnzO4BCU6AQAGY-29">
          <mxGeometry x="397" width="120" height="120" as="geometry">
            <mxRectangle width="120" height="120" as="alternateBounds" />
          </mxGeometry>
        </mxCell>
        <mxCell id="RUR8l_DnzO4BCU6AQAGY-85" style="swimlane;swimlaneHead=0;swimlaneBody=0;fontStyle=0;connectable=0;fillColor=none;startSize=0;collapsible=0;recursiveResize=0;expand=0;fontStyle=1;" vertex="1" parent="RUR8l_DnzO4BCU6AQAGY-29">
          <mxGeometry x="517" width="120" height="120" as="geometry">
            <mxRectangle width="120" height="120" as="alternateBounds" />
          </mxGeometry>
        </mxCell>
        <mxCell id="RUR8l_DnzO4BCU6AQAGY-50" style="shape=tableRow;horizontal=0;startSize=40;swimlaneHead=0;swimlaneBody=0;top=0;left=0;bottom=0;right=0;dropTarget=0;fillColor=none;collapsible=0;recursiveResize=0;expand=0;fontStyle=1;" vertex="1" parent="RUR8l_DnzO4BCU6AQAGY-20">
          <mxGeometry y="330" width="637" height="120" as="geometry" />
        </mxCell>
        <mxCell id="RUR8l_DnzO4BCU6AQAGY-51" style="swimlane;swimlaneHead=0;swimlaneBody=0;fontStyle=0;connectable=0;fillColor=none;startSize=0;collapsible=0;recursiveResize=0;expand=0;fontStyle=1;" vertex="1" parent="RUR8l_DnzO4BCU6AQAGY-50">
          <mxGeometry x="40" width="119" height="120" as="geometry">
            <mxRectangle width="119" height="120" as="alternateBounds" />
          </mxGeometry>
        </mxCell>
        <mxCell id="RUR8l_DnzO4BCU6AQAGY-52" style="swimlane;swimlaneHead=0;swimlaneBody=0;fontStyle=0;connectable=0;fillColor=none;startSize=0;collapsible=0;recursiveResize=0;expand=0;fontStyle=1;" vertex="1" parent="RUR8l_DnzO4BCU6AQAGY-50">
          <mxGeometry x="159" width="120" height="120" as="geometry">
            <mxRectangle width="120" height="120" as="alternateBounds" />
          </mxGeometry>
        </mxCell>
        <mxCell id="RUR8l_DnzO4BCU6AQAGY-53" style="swimlane;swimlaneHead=0;swimlaneBody=0;fontStyle=0;connectable=0;fillColor=none;startSize=0;collapsible=0;recursiveResize=0;expand=0;fontStyle=1;" vertex="1" parent="RUR8l_DnzO4BCU6AQAGY-50">
          <mxGeometry x="279" width="118" height="120" as="geometry">
            <mxRectangle width="118" height="120" as="alternateBounds" />
          </mxGeometry>
        </mxCell>
        <mxCell id="RUR8l_DnzO4BCU6AQAGY-54" style="swimlane;swimlaneHead=0;swimlaneBody=0;fontStyle=0;connectable=0;fillColor=none;startSize=0;collapsible=0;recursiveResize=0;expand=0;fontStyle=1;" vertex="1" parent="RUR8l_DnzO4BCU6AQAGY-50">
          <mxGeometry x="397" width="120" height="120" as="geometry">
            <mxRectangle width="120" height="120" as="alternateBounds" />
          </mxGeometry>
        </mxCell>
        <mxCell id="RUR8l_DnzO4BCU6AQAGY-86" style="swimlane;swimlaneHead=0;swimlaneBody=0;fontStyle=0;connectable=0;fillColor=none;startSize=0;collapsible=0;recursiveResize=0;expand=0;fontStyle=1;" vertex="1" parent="RUR8l_DnzO4BCU6AQAGY-50">
          <mxGeometry x="517" width="120" height="120" as="geometry">
            <mxRectangle width="120" height="120" as="alternateBounds" />
          </mxGeometry>
        </mxCell>
        <mxCell id="RUR8l_DnzO4BCU6AQAGY-60" style="shape=tableRow;horizontal=0;startSize=40;swimlaneHead=0;swimlaneBody=0;top=0;left=0;bottom=0;right=0;dropTarget=0;fillColor=none;collapsible=0;recursiveResize=0;expand=0;fontStyle=1;" vertex="1" parent="RUR8l_DnzO4BCU6AQAGY-20">
          <mxGeometry y="450" width="637" height="120" as="geometry" />
        </mxCell>
        <mxCell id="RUR8l_DnzO4BCU6AQAGY-61" style="swimlane;swimlaneHead=0;swimlaneBody=0;fontStyle=0;connectable=0;fillColor=none;startSize=0;collapsible=0;recursiveResize=0;expand=0;fontStyle=1;" vertex="1" parent="RUR8l_DnzO4BCU6AQAGY-60">
          <mxGeometry x="40" width="119" height="120" as="geometry">
            <mxRectangle width="119" height="120" as="alternateBounds" />
          </mxGeometry>
        </mxCell>
        <mxCell id="RUR8l_DnzO4BCU6AQAGY-62" style="swimlane;swimlaneHead=0;swimlaneBody=0;fontStyle=0;connectable=0;fillColor=none;startSize=0;collapsible=0;recursiveResize=0;expand=0;fontStyle=1;" vertex="1" parent="RUR8l_DnzO4BCU6AQAGY-60">
          <mxGeometry x="159" width="120" height="120" as="geometry">
            <mxRectangle width="120" height="120" as="alternateBounds" />
          </mxGeometry>
        </mxCell>
        <mxCell id="RUR8l_DnzO4BCU6AQAGY-63" style="swimlane;swimlaneHead=0;swimlaneBody=0;fontStyle=0;connectable=0;fillColor=none;startSize=0;collapsible=0;recursiveResize=0;expand=0;fontStyle=1;" vertex="1" parent="RUR8l_DnzO4BCU6AQAGY-60">
          <mxGeometry x="279" width="118" height="120" as="geometry">
            <mxRectangle width="118" height="120" as="alternateBounds" />
          </mxGeometry>
        </mxCell>
        <mxCell id="RUR8l_DnzO4BCU6AQAGY-64" style="swimlane;swimlaneHead=0;swimlaneBody=0;fontStyle=0;connectable=0;fillColor=none;startSize=0;collapsible=0;recursiveResize=0;expand=0;fontStyle=1;" vertex="1" parent="RUR8l_DnzO4BCU6AQAGY-60">
          <mxGeometry x="397" width="120" height="120" as="geometry">
            <mxRectangle width="120" height="120" as="alternateBounds" />
          </mxGeometry>
        </mxCell>
        <mxCell id="RUR8l_DnzO4BCU6AQAGY-87" style="swimlane;swimlaneHead=0;swimlaneBody=0;fontStyle=0;connectable=0;fillColor=none;startSize=0;collapsible=0;recursiveResize=0;expand=0;fontStyle=1;" vertex="1" parent="RUR8l_DnzO4BCU6AQAGY-60">
          <mxGeometry x="517" width="120" height="120" as="geometry">
            <mxRectangle width="120" height="120" as="alternateBounds" />
          </mxGeometry>
        </mxCell>
      </root>
    </mxGraphModel>
  </diagram>
  <diagram id="PvMFe_AoUgCYHySHkvIt" name="Page-2">
    <mxGraphModel dx="1422" dy="762" grid="1" gridSize="10" guides="1" tooltips="1" connect="1" arrows="1" fold="1" page="1" pageScale="1" pageWidth="850" pageHeight="1100" math="0" shadow="0">
      <root>
        <mxCell id="0" />
        <mxCell id="1" parent="0" />
        <mxCell id="DkhXyngtVjoVBpYEaCNT-3" value="" style="edgeStyle=orthogonalEdgeStyle;rounded=0;orthogonalLoop=1;jettySize=auto;html=1;" edge="1" parent="1" source="DkhXyngtVjoVBpYEaCNT-1" target="DkhXyngtVjoVBpYEaCNT-2">
          <mxGeometry relative="1" as="geometry" />
        </mxCell>
        <mxCell id="DkhXyngtVjoVBpYEaCNT-1" value="&lt;div class=&quot;O0&quot; style=&quot;line-height: normal; margin: 0pt 0in 0pt 0.1in; text-indent: -0.1in; text-align: left; direction: ltr; unicode-bidi: embed; word-break: normal; font-size: 12px;&quot;&gt;&lt;span style=&quot;font-size: 12px; vertical-align: baseline;&quot;&gt;Secure&lt;br style=&quot;font-size: 12px;&quot;&gt;Log Bundle&lt;/span&gt;&lt;/div&gt;" style="rounded=0;whiteSpace=wrap;html=1;fontFamily=Helvetica;fontSize=12;fillColor=#d5e8d4;strokeColor=#82b366;" vertex="1" parent="1">
          <mxGeometry x="100" y="170" width="120" height="60" as="geometry" />
        </mxCell>
        <mxCell id="DkhXyngtVjoVBpYEaCNT-5" value="" style="edgeStyle=orthogonalEdgeStyle;rounded=0;orthogonalLoop=1;jettySize=auto;html=1;fontFamily=Helvetica;fontSize=12;fontColor=#000000;" edge="1" parent="1" source="DkhXyngtVjoVBpYEaCNT-2" target="DkhXyngtVjoVBpYEaCNT-4">
          <mxGeometry relative="1" as="geometry" />
        </mxCell>
        <mxCell id="DkhXyngtVjoVBpYEaCNT-2" value="&lt;div class=&quot;O0&quot; style=&quot;line-height: normal ; margin-top: 0pt ; margin-bottom: 0pt ; margin-left: 0.1in ; margin-right: 0in ; text-indent: -0.1in ; text-align: left ; direction: ltr ; unicode-bidi: embed ; word-break: normal&quot;&gt;&lt;div class=&quot;O0&quot; style=&quot;line-height: normal ; margin: 0pt 0in 0pt 0.1in ; text-indent: -0.1in ; direction: ltr ; unicode-bidi: embed ; word-break: normal&quot;&gt;Support Model &amp;amp; Mitigate Root&lt;/div&gt;&lt;/div&gt;" style="rounded=0;whiteSpace=wrap;html=1;" vertex="1" parent="1">
          <mxGeometry x="300" y="170" width="120" height="60" as="geometry" />
        </mxCell>
        <mxCell id="DkhXyngtVjoVBpYEaCNT-7" value="" style="edgeStyle=orthogonalEdgeStyle;rounded=0;orthogonalLoop=1;jettySize=auto;html=1;fontFamily=Helvetica;fontSize=12;fontColor=#000000;" edge="1" parent="1" source="DkhXyngtVjoVBpYEaCNT-14" target="DkhXyngtVjoVBpYEaCNT-6">
          <mxGeometry relative="1" as="geometry">
            <mxPoint x="680" y="140" as="sourcePoint" />
          </mxGeometry>
        </mxCell>
        <mxCell id="DkhXyngtVjoVBpYEaCNT-15" value="" style="edgeStyle=orthogonalEdgeStyle;rounded=0;orthogonalLoop=1;jettySize=auto;html=1;fontFamily=Helvetica;fontSize=12;fontColor=#000000;exitX=1;exitY=0.5;exitDx=0;exitDy=0;" edge="1" parent="1" source="DkhXyngtVjoVBpYEaCNT-16" target="DkhXyngtVjoVBpYEaCNT-14">
          <mxGeometry relative="1" as="geometry" />
        </mxCell>
        <mxCell id="DkhXyngtVjoVBpYEaCNT-17" value="" style="edgeStyle=orthogonalEdgeStyle;rounded=0;orthogonalLoop=1;jettySize=auto;html=1;fontFamily=Helvetica;fontSize=12;fontColor=#000000;" edge="1" parent="1" source="DkhXyngtVjoVBpYEaCNT-4" target="DkhXyngtVjoVBpYEaCNT-16">
          <mxGeometry relative="1" as="geometry" />
        </mxCell>
        <mxCell id="DkhXyngtVjoVBpYEaCNT-4" value="Vulnerability access point assessment" style="rounded=0;whiteSpace=wrap;html=1;fillColor=#d5e8d4;strokeColor=#82b366;" vertex="1" parent="1">
          <mxGeometry x="500" y="170" width="110" height="60" as="geometry" />
        </mxCell>
        <mxCell id="DkhXyngtVjoVBpYEaCNT-9" value="" style="edgeStyle=orthogonalEdgeStyle;rounded=0;orthogonalLoop=1;jettySize=auto;html=1;fontFamily=Helvetica;fontSize=12;fontColor=#000000;" edge="1" parent="1" source="DkhXyngtVjoVBpYEaCNT-6" target="DkhXyngtVjoVBpYEaCNT-8">
          <mxGeometry relative="1" as="geometry" />
        </mxCell>
        <mxCell id="DkhXyngtVjoVBpYEaCNT-6" value="Log Review Framework" style="rounded=0;whiteSpace=wrap;html=1;" vertex="1" parent="1">
          <mxGeometry x="770" y="340" width="120" height="60" as="geometry" />
        </mxCell>
        <mxCell id="DkhXyngtVjoVBpYEaCNT-11" value="" style="edgeStyle=orthogonalEdgeStyle;rounded=0;orthogonalLoop=1;jettySize=auto;html=1;fontFamily=Helvetica;fontSize=12;fontColor=#000000;" edge="1" parent="1" source="DkhXyngtVjoVBpYEaCNT-8" target="DkhXyngtVjoVBpYEaCNT-10">
          <mxGeometry relative="1" as="geometry" />
        </mxCell>
        <mxCell id="DkhXyngtVjoVBpYEaCNT-8" value="Log Bundle Self-Service" style="rounded=0;whiteSpace=wrap;html=1;" vertex="1" parent="1">
          <mxGeometry x="1010" y="350" width="120" height="60" as="geometry" />
        </mxCell>
        <mxCell id="DkhXyngtVjoVBpYEaCNT-13" value="" style="edgeStyle=orthogonalEdgeStyle;rounded=0;orthogonalLoop=1;jettySize=auto;html=1;fontFamily=Helvetica;fontSize=12;fontColor=#000000;" edge="1" parent="1" source="DkhXyngtVjoVBpYEaCNT-10" target="DkhXyngtVjoVBpYEaCNT-12">
          <mxGeometry relative="1" as="geometry" />
        </mxCell>
        <mxCell id="DkhXyngtVjoVBpYEaCNT-10" value="Bangkok ESFS to VMS150" style="whiteSpace=wrap;html=1;rounded=0;" vertex="1" parent="1">
          <mxGeometry x="1230" y="400" width="120" height="60" as="geometry" />
        </mxCell>
        <mxCell id="DkhXyngtVjoVBpYEaCNT-12" value="Rome ESFS on GP" style="whiteSpace=wrap;html=1;rounded=0;" vertex="1" parent="1">
          <mxGeometry x="1330" y="240" width="120" height="60" as="geometry" />
        </mxCell>
        <mxCell id="DkhXyngtVjoVBpYEaCNT-14" value="Support Model &amp;amp; Management Endorsement" style="whiteSpace=wrap;html=1;rounded=0;" vertex="1" parent="1">
          <mxGeometry x="500" y="310" width="120" height="60" as="geometry" />
        </mxCell>
        <mxCell id="DkhXyngtVjoVBpYEaCNT-16" value="Host Root &amp;amp; Snapshot mitigation" style="rounded=0;whiteSpace=wrap;html=1;" vertex="1" parent="1">
          <mxGeometry x="670" y="170" width="110" height="60" as="geometry" />
        </mxCell>
        <mxCell id="DkhXyngtVjoVBpYEaCNT-48" style="edgeStyle=orthogonalEdgeStyle;rounded=0;orthogonalLoop=1;jettySize=auto;html=1;fontFamily=Helvetica;fontSize=12;fontColor=#000000;" edge="1" parent="1" source="DkhXyngtVjoVBpYEaCNT-37" target="DkhXyngtVjoVBpYEaCNT-38">
          <mxGeometry relative="1" as="geometry" />
        </mxCell>
        <mxCell id="DkhXyngtVjoVBpYEaCNT-37" value="Readiness" style="swimlane;fontFamily=Helvetica;fontSize=12;fontColor=#000000;" vertex="1" parent="1">
          <mxGeometry x="40" y="470" width="400" height="200" as="geometry" />
        </mxCell>
        <mxCell id="DkhXyngtVjoVBpYEaCNT-21" value="VLAN/Subnet Identification" style="rounded=0;whiteSpace=wrap;html=1;fontColor=#000000;" vertex="1" parent="DkhXyngtVjoVBpYEaCNT-37">
          <mxGeometry x="40" y="50" width="120" height="60" as="geometry" />
        </mxCell>
        <mxCell id="DkhXyngtVjoVBpYEaCNT-19" value="IP reservation" style="rounded=0;whiteSpace=wrap;html=1;fontColor=#000000;" vertex="1" parent="DkhXyngtVjoVBpYEaCNT-37">
          <mxGeometry x="220" y="50" width="120" height="60" as="geometry" />
        </mxCell>
        <mxCell id="DkhXyngtVjoVBpYEaCNT-29" style="edgeStyle=orthogonalEdgeStyle;rounded=0;orthogonalLoop=1;jettySize=auto;html=1;entryX=0;entryY=0.5;entryDx=0;entryDy=0;fontFamily=Helvetica;fontSize=12;fontColor=#000000;" edge="1" parent="DkhXyngtVjoVBpYEaCNT-37" source="DkhXyngtVjoVBpYEaCNT-21" target="DkhXyngtVjoVBpYEaCNT-19">
          <mxGeometry relative="1" as="geometry" />
        </mxCell>
        <mxCell id="DkhXyngtVjoVBpYEaCNT-49" style="edgeStyle=orthogonalEdgeStyle;rounded=0;orthogonalLoop=1;jettySize=auto;html=1;entryX=0;entryY=0.5;entryDx=0;entryDy=0;fontFamily=Helvetica;fontSize=12;fontColor=#000000;" edge="1" parent="1" source="DkhXyngtVjoVBpYEaCNT-38" target="DkhXyngtVjoVBpYEaCNT-39">
          <mxGeometry relative="1" as="geometry" />
        </mxCell>
        <mxCell id="DkhXyngtVjoVBpYEaCNT-38" value="Build" style="swimlane;fontFamily=Helvetica;fontSize=12;fontColor=#000000;" vertex="1" parent="1">
          <mxGeometry x="470" y="460" width="320" height="410" as="geometry" />
        </mxCell>
        <mxCell id="DkhXyngtVjoVBpYEaCNT-18" value="BareMetal 15G" style="rounded=0;whiteSpace=wrap;html=1;fontFamily=Helvetica;fontSize=12;fontColor=#000000;" vertex="1" parent="DkhXyngtVjoVBpYEaCNT-38">
          <mxGeometry x="100" y="60" width="120" height="60" as="geometry" />
        </mxCell>
        <mxCell id="DkhXyngtVjoVBpYEaCNT-23" value="Baremetal 14G" style="rounded=0;whiteSpace=wrap;html=1;fillColor=#d5e8d4;strokeColor=#82b366;" vertex="1" parent="DkhXyngtVjoVBpYEaCNT-38">
          <mxGeometry x="100" y="140" width="120" height="60" as="geometry" />
        </mxCell>
        <mxCell id="DkhXyngtVjoVBpYEaCNT-25" value="Baremetal 13G" style="whiteSpace=wrap;html=1;rounded=0;fillColor=#d5e8d4;strokeColor=#82b366;" vertex="1" parent="DkhXyngtVjoVBpYEaCNT-38">
          <mxGeometry x="100" y="220" width="120" height="60" as="geometry" />
        </mxCell>
        <mxCell id="DkhXyngtVjoVBpYEaCNT-39" value="Post Build" style="swimlane;fontFamily=Helvetica;fontSize=12;fontColor=#000000;" vertex="1" parent="1">
          <mxGeometry x="840" y="460" width="340" height="410" as="geometry" />
        </mxCell>
        <mxCell id="DkhXyngtVjoVBpYEaCNT-33" value="Cluster Certification" style="whiteSpace=wrap;html=1;fontColor=#000000;rounded=0;" vertex="1" parent="DkhXyngtVjoVBpYEaCNT-39">
          <mxGeometry x="50" y="110" width="120" height="60" as="geometry" />
        </mxCell>
        <mxCell id="DkhXyngtVjoVBpYEaCNT-40" value="CI Update" style="rounded=0;whiteSpace=wrap;html=1;fontFamily=Helvetica;fontSize=12;fontColor=#000000;" vertex="1" parent="DkhXyngtVjoVBpYEaCNT-39">
          <mxGeometry x="60" y="230" width="120" height="60" as="geometry" />
        </mxCell>
        <mxCell id="DkhXyngtVjoVBpYEaCNT-47" value="" style="edgeStyle=orthogonalEdgeStyle;rounded=0;orthogonalLoop=1;jettySize=auto;html=1;fontFamily=Helvetica;fontSize=12;fontColor=#000000;" edge="1" parent="1" source="DkhXyngtVjoVBpYEaCNT-45" target="DkhXyngtVjoVBpYEaCNT-46">
          <mxGeometry relative="1" as="geometry" />
        </mxCell>
        <mxCell id="DkhXyngtVjoVBpYEaCNT-45" value="Enforcement" style="swimlane;fontFamily=Helvetica;fontSize=12;fontColor=#000000;" vertex="1" parent="1">
          <mxGeometry x="520" y="990" width="190" height="450" as="geometry" />
        </mxCell>
        <mxCell id="DkhXyngtVjoVBpYEaCNT-42" value="Enforce services to be stopped" style="rounded=0;whiteSpace=wrap;html=1;fontFamily=Helvetica;fontSize=12;fontColor=#000000;" vertex="1" parent="DkhXyngtVjoVBpYEaCNT-45">
          <mxGeometry x="35" y="50" width="120" height="60" as="geometry" />
        </mxCell>
        <mxCell id="DkhXyngtVjoVBpYEaCNT-55" value="Enforce XXXX configurations" style="rounded=0;whiteSpace=wrap;html=1;fontFamily=Helvetica;fontSize=12;fontColor=#000000;" vertex="1" parent="DkhXyngtVjoVBpYEaCNT-45">
          <mxGeometry x="35" y="130" width="120" height="60" as="geometry" />
        </mxCell>
        <mxCell id="DkhXyngtVjoVBpYEaCNT-56" value="Compliance/Failed Execution Report" style="rounded=0;whiteSpace=wrap;html=1;fontFamily=Helvetica;fontSize=12;fontColor=#000000;" vertex="1" parent="DkhXyngtVjoVBpYEaCNT-45">
          <mxGeometry x="35" y="210" width="120" height="60" as="geometry" />
        </mxCell>
        <mxCell id="DkhXyngtVjoVBpYEaCNT-46" value="Exception" style="swimlane;fontFamily=Helvetica;fontSize=12;fontColor=#000000;" vertex="1" parent="1">
          <mxGeometry x="870" y="990" width="200" height="200" as="geometry" />
        </mxCell>
        <mxCell id="DkhXyngtVjoVBpYEaCNT-43" value="Managing enforcement exception" style="whiteSpace=wrap;html=1;fontColor=#000000;rounded=0;" vertex="1" parent="DkhXyngtVjoVBpYEaCNT-46">
          <mxGeometry x="40" y="50" width="120" height="60" as="geometry" />
        </mxCell>
        <mxCell id="DkhXyngtVjoVBpYEaCNT-51" value="Approval of exception" style="rounded=0;whiteSpace=wrap;html=1;fontFamily=Helvetica;fontSize=12;fontColor=#000000;" vertex="1" parent="DkhXyngtVjoVBpYEaCNT-46">
          <mxGeometry x="40" y="130" width="120" height="60" as="geometry" />
        </mxCell>
        <mxCell id="DkhXyngtVjoVBpYEaCNT-53" style="edgeStyle=orthogonalEdgeStyle;rounded=0;orthogonalLoop=1;jettySize=auto;html=1;entryX=0;entryY=0.5;entryDx=0;entryDy=0;fontFamily=Helvetica;fontSize=12;fontColor=#000000;" edge="1" parent="1" source="DkhXyngtVjoVBpYEaCNT-52" target="DkhXyngtVjoVBpYEaCNT-45">
          <mxGeometry relative="1" as="geometry" />
        </mxCell>
        <mxCell id="DkhXyngtVjoVBpYEaCNT-52" value="Build" style="swimlane;fontFamily=Helvetica;fontSize=12;fontColor=#000000;startSize=23;" vertex="1" parent="1">
          <mxGeometry x="150" y="990" width="200" height="200" as="geometry" />
        </mxCell>
        <mxCell id="DkhXyngtVjoVBpYEaCNT-54" value="Managing Change" style="rounded=0;whiteSpace=wrap;html=1;fontFamily=Helvetica;fontSize=12;fontColor=#000000;" vertex="1" parent="DkhXyngtVjoVBpYEaCNT-52">
          <mxGeometry x="30" y="50" width="120" height="60" as="geometry" />
        </mxCell>
      </root>
    </mxGraphModel>
  </diagram>
</mxfile>
